<svg xmlns="http://www.w3.org/2000/svg" viewBox="0 0 265.09 265.09">
    <defs>
        <style>.cls-1{fill:#576c76;}.cls-2{fill:none;stroke:#fff;stroke-miterlimit:10;stroke-width:3.3px;}.cls-3{font-size:25.61px;fill:#fff;font-family:Cabin-Bold, Cabin;font-weight:700;}.cls-4{letter-spacing:-0.01em;}</style>
    </defs>
    <g id="Layer_2" data-name="Layer 2">
        <g id="Text">
            <rect class="cls-1" width="265.09" height="265.09"/>
            <path class="cls-2" d="M202.71,163.63c-.07.36-.13.74-.22,1.1a4.89,4.89,0,1,1,.12-1.85c0,.15.07.28.1.42Z"/>
            <path class="cls-2" d="M202.71,135.27c-.07.35-.12.71-.21,1a4.86,4.86,0,1,1,.07-2.11c.06.28.09.56.14.85Z"/>
            <path class="cls-2" d="M189.85,123.06a4.89,4.89,0,1,1,4.94-4.84A4.9,4.9,0,0,1,189.85,123.06Z"/>
            <path class="cls-2" d="M123.92,57.26a4.9,4.9,0,1,1,4.9,4.94A4.93,4.93,0,0,1,123.92,57.26Z"/>
            <path class="cls-2" d="M159.72,67.72a4.89,4.89,0,1,1-4.91,4.86A4.88,4.88,0,0,1,159.72,67.72Z"/>
            <path class="cls-2" d="M165.72,93.35a4.89,4.89,0,1,1-4.88,4.89A4.9,4.9,0,0,1,165.72,93.35Z"/>
            <path class="cls-2" d="M162.59,107.87a4.89,4.89,0,1,1-4.9,4.87A4.88,4.88,0,0,1,162.59,107.87Z"/>
            <path class="cls-2" d="M160,84.64a4.91,4.91,0,1,1,4.89,4.94A4.93,4.93,0,0,1,160,84.64Z"/>
            <path class="cls-2" d="M183.14,97.36a4.89,4.89,0,1,1-4.88-4.9A4.91,4.91,0,0,1,183.14,97.36Z"/>
            <path class="cls-2" d="M134.7,98.74a4.89,4.89,0,1,1,4.85,4.92A4.88,4.88,0,0,1,134.7,98.74Z"/>
            <path class="cls-2" d="M153.29,108.55a4.89,4.89,0,1,1,4.93-4.85A4.9,4.9,0,0,1,153.29,108.55Z"/>
            <path class="cls-2" d="M190.34,99.89a4.9,4.9,0,1,1-4.92,4.88A4.94,4.94,0,0,1,190.34,99.89Z"/>
            <path class="cls-2" d="M142.89,55.89a4.9,4.9,0,1,1,4.83-5A4.92,4.92,0,0,1,142.89,55.89Z"/>
            <path class="cls-2" d="M111.68,79.18a4.9,4.9,0,1,1-4.91-4.92A4.94,4.94,0,0,1,111.68,79.18Z"/>
            <path class="cls-2" d="M147.46,90.63a4.9,4.9,0,1,1,4.89,4.89A4.91,4.91,0,0,1,147.46,90.63Z"/>
            <path class="cls-2" d="M142.8,70.06a4.9,4.9,0,1,1,4.92-4.85A4.9,4.9,0,0,1,142.8,70.06Z"/>
            <path class="cls-2" d="M147.35,83.35a4.89,4.89,0,1,1,4.92-4.86A4.89,4.89,0,0,1,147.35,83.35Z"/>
            <path class="cls-2" d="M161.18,59.89a4.89,4.89,0,1,1-4.9-4.86A4.9,4.9,0,0,1,161.18,59.89Z"/>
            <path class="cls-2" d="M132.29,78.89a4.89,4.89,0,1,1,4.93-4.84A4.89,4.89,0,0,1,132.29,78.89Z"/>
            <path class="cls-2" d="M115,68.58a4.89,4.89,0,1,1,4.88,4.89A4.86,4.86,0,0,1,115,68.58Z"/>
            <path class="cls-2" d="M125.66,82.66a4.89,4.89,0,1,1-4.87-4.88A4.87,4.87,0,0,1,125.66,82.66Z"/>
            <path class="cls-2" d="M135.91,91.13a4.89,4.89,0,1,1,4.89-4.87A4.85,4.85,0,0,1,135.91,91.13Z"/>
            <path class="cls-2" d="M181.3,110.94a4.89,4.89,0,1,1-4.85-4.91A4.87,4.87,0,0,1,181.3,110.94Z"/>
            <path class="cls-2" d="M183.14,84a4.89,4.89,0,1,1-4.83-4.93A4.87,4.87,0,0,1,183.14,84Z"/>
            <path class="cls-2" d="M56.79,96.44l22.36-2.91s15.1-11.23,29-1.93c9.49,5.8,11,13.55,11,13.55l25,18.59s7.78,5.44,3.49,11.61c-4.84,7-13,.58-13,.58l-16.85-13.36"/>
            <path class="cls-2" d="M149.43,133.61l23.62-3.87s11-2.69,12.2,5.81c1,7-11.42,9.87-11.42,9.87L139.17,153s-5.23,1.36-13.17-4.45L94.64,125.87l-35.43,6.38"/>
            <line class="cls-2" x1="114.44" y1="119.81" x2="110.9" y2="116.77"/>
            <text class="cls-3" transform="translate(54.7 226.44)">ABUN<tspan class="cls-4" x="68.53" y="0">D</tspan>
                <tspan x="86.66" y="0">ANCE</tspan>
            </text>
        </g>
    </g>
</svg>