<svg xmlns="http://www.w3.org/2000/svg" viewBox="0 0 265.09 265.09">
    <defs>
        <style>.cls-1{fill:#576c76;}.cls-2{font-size:25.61px;fill:#fff;font-family:Cabin-Bold, Cabin;font-weight:700;}.cls-3{letter-spacing:0em;}.cls-4{letter-spacing:0em;}.cls-5{fill:none;stroke:#fff;stroke-miterlimit:10;stroke-width:3px;}</style>
    </defs>
    <g id="Layer_2" data-name="Layer 2">
        <g id="Text">
            <rect class="cls-1" width="265.09" height="265.09"/>
            <text class="cls-2" transform="translate(65.5 226.92)">A<tspan class="cls-3" x="16" y="0">M</tspan>
                <tspan class="cls-4" x="37.21" y="0">BITIONS</tspan>
            </text>
            <polyline class="cls-5" points="59.18 174.34 97.11 131.6 106.73 141.22"/>
            <polyline class="cls-5" points="102.33 148.7 133.42 105.28 164.52 149.31"/>
            <polyline class="cls-5" points="209.78 175.18 172.83 128.07 159.28 141.31"/>
            <path class="cls-5" d="M122.9,118.06a28.14,28.14,0,1,1,20.43-.57"/>
            <path class="cls-5" d="M159.21,61.9a38.16,38.16,0,0,1-2.29,60.76"/>
            <path class="cls-5" d="M107.16,61.9a38.16,38.16,0,0,0,2.29,60.76"/>
            <polygon class="cls-5" points="133.73 72.5 138.28 81.72 148.47 83.2 141.1 90.39 142.84 100.53 133.73 95.74 124.62 100.53 126.36 90.39 118.99 83.2 129.18 81.72 133.73 72.5"/>
        </g>
    </g>
</svg>