<svg xmlns="http://www.w3.org/2000/svg" viewBox="0 0 265.09 265.09"><defs><style>.cls-1{fill:#576c76;}.cls-2{font-size:25.61px;font-family:Cabin-Bold, Cabin;font-weight:700;}.cls-2,.cls-3{fill:#fff;}</style></defs><g id="Layer_2" data-name="Layer 2"><g id="Text"><rect class="cls-1" width="265.09" height="265.09"/><text class="cls-2" transform="translate(86.16 218.82)">CAREER</text><path class="cls-3" d="M186.85,127.49c-.59,1.18-1.2,2.35-1.75,3.55a2.8,2.8,0,0,0-.18,1.16c0,6.59-.1,13.18,0,19.76.07,3.76-2.47,5.47-5.41,5.46-16.35-.08-32.71.13-49.06-.09-19-.25-33-9-41.7-25.85a43.2,43.2,0,0,1-4.32-25.32A44.68,44.68,0,0,1,90,89a1.2,1.2,0,0,0-.29-1.76c-1.59-1.53-3.12-3.13-4.68-4.68a2.06,2.06,0,0,1,1.52-3.72c3.28,0,6.56,0,9.83,0h1.18V74.38c0-2.17,0-4.34,0-6.52a2.1,2.1,0,0,1,1.26-2.19,2.08,2.08,0,0,1,2.43.67c1.58,1.58,3.2,3.14,4.74,4.76a1.15,1.15,0,0,0,1.69.26,44.38,44.38,0,0,1,26.43-5.64c13.92,1.34,25,7.75,33.29,19a67.1,67.1,0,0,1,4,6.79c.81,1.43.54,2.64-.57,3.21s-2.23.12-3-1.37A42.18,42.18,0,0,0,158,80.24a42,42,0,0,0-47.81-5.73l-.26.15a.84.84,0,0,0-.13.17c2,2,4,4.1,6.07,6.11a3.57,3.57,0,0,1,1.18,2.83c0,3.65,0,7.29,0,10.94a2.36,2.36,0,0,0,.61,1.46c3.71,3.76,7.46,7.49,11.19,11.23a5.59,5.59,0,0,1,.83,1,1.95,1.95,0,0,1-2.68,2.67,5.66,5.66,0,0,1-1-.83c-3.71-3.71-7.43-7.42-11.12-11.15a2.11,2.11,0,0,0-1.67-.68c-3.64,0-7.29,0-10.93,0a3.42,3.42,0,0,1-2.66-1.12c-2.05-2.06-4.14-4.08-6.33-6.23-6.85,13.56-7.31,27.19.09,40.5,7.76,13.95,20.08,20.93,36,21.88v-7.83c-1.77-.22-3.55-.38-5.32-.68a33,33,0,0,1-15.82-7.3,34.06,34.06,0,0,1-11.7-32.73,2.06,2.06,0,0,1,2.4-1.87,2.11,2.11,0,0,1,1.53,2.73,30.15,30.15,0,0,0,25.7,35.5c1,.14,2.06.17,3.26.26v-1c0-2.84,0-5.68,0-8.53a2.09,2.09,0,0,0-.32-1.19,7.55,7.55,0,0,1-1.57-4.76c0-3.85,0-7.7,0-11.54,0-1.78.73-2.48,2.52-2.48,4.45,0,8.89,0,13.34,0h1.24c0-1.25,0-2.44,0-3.63,0-2.77,1.43-4.18,4.22-4.19h10.52c-.79-2-1.36-4-2.27-5.81-5.07-10-13.16-15.67-24.3-16.86a55.46,55.46,0,0,0-7.28.16c-.47,0-.94.1-1.4.08a1.94,1.94,0,0,1-.61-3.74,11.79,11.79,0,0,1,2.35-.47c11.21-1.12,20.85,2.24,28.76,10.3a32.68,32.68,0,0,1,8.51,15.54c.06.25.16.5.26.8h2.31a3.73,3.73,0,0,1,4,4c0,1.22,0,2.45,0,3.79h1.16c4.42,0,8.83,0,13.24,0a2.46,2.46,0,0,1,2.68,1.61Zm-6,20.26h-11a22.07,22.07,0,0,1-2.3,0,1.94,1.94,0,0,1-1.82-2,2,2,0,0,1,1.83-1.93,6.76,6.76,0,0,1,.9,0h12.3v-10.2H163.22c-1.17,3.52-3,5.24-5.86,5.16a8.11,8.11,0,0,1-3.39-1,5.65,5.65,0,0,1-2.73-4.22H133.5v18.4c0,1.4,0,1.45,1.48,1.45h44.43c.23,0,.51.08.69,0s.74-.46.75-.71C180.92,151.05,180.88,149.45,180.88,147.75ZM131.6,116.08c0,3.33,0,6.57,0,9.8,0,2.43,1.21,3.61,3.66,3.61h16c0-.62,0-1.09,0-1.55a2.47,2.47,0,0,1,2.79-2.68c2.14,0,4.28,0,6.42,0,1.85,0,2.73.93,2.76,2.81v1.37c.38,0,.61,0,.84,0q7.66,0,15.34,0a3.17,3.17,0,0,0,3.46-3.51q0-4.56,0-9.12a6.88,6.88,0,0,0-.07-.77ZM110,94.4a2.5,2.5,0,0,0-.16-.33c-3.58-3.6-7.15-7.2-10.75-10.78a1.48,1.48,0,0,0-1-.37c-2.14,0-4.27,0-6.41,0a4.48,4.48,0,0,0-.74.18c3.78,3.73,7.41,7.32,11.06,10.9a1.28,1.28,0,0,0,.75.39C105.17,94.41,107.53,94.4,110,94.4Zm3-3c0-2.38,0-4.6,0-6.82a2.17,2.17,0,0,0-.57-1.37c-3.35-3.4-6.74-6.76-10.12-10.13-.19-.19-.42-.36-.75-.63,0,2.5,0,4.83,0,7.16a1.22,1.22,0,0,0,.35.77C105.58,84,109.23,87.64,113,91.42ZM165.7,108.3H148.78V112H165.7Zm-10.39,21c0,1.32-.08,2.55,0,3.76a1.8,1.8,0,0,0,1.91,1.66,1.87,1.87,0,0,0,1.89-1.72c.07-1.21,0-2.44,0-3.7Z"/><path class="cls-3" d="M109.39,111.33c.37-2,.68-3.93,1.14-5.87.35-1.51,1.42-2.16,2.61-1.82s1.65,1.47,1.21,3a16.37,16.37,0,0,0,.26,10.42,16,16,0,0,0,5.73,7.66c.46.33,1,.63,1.38,1a2,2,0,0,1,.41,2.78,2,2,0,0,1-2.68.46,20.38,20.38,0,0,1-5.88-5.37A22.33,22.33,0,0,1,109.39,111.33Z"/><path class="cls-3" d="M144.7,97.61c0,1.8-1.53,2.8-2.83,2.16a4.68,4.68,0,0,1-1-.7A16.27,16.27,0,0,0,125,95.8c-1.76.53-2.82.19-3.23-1.09s.3-2.21,2-2.73a20.08,20.08,0,0,1,20,4.31A5.47,5.47,0,0,1,144.7,97.61Z"/><path class="cls-3" d="M170.78,100.94a1.9,1.9,0,0,1,1.95-2,2,2,0,0,1,2,2,2,2,0,0,1-2,2A2,2,0,0,1,170.78,100.94Z"/><path class="cls-3" d="M157.87,147.73a2,2,0,0,1,.08-4,2,2,0,1,1-.08,4Z"/></g></g></svg>