<svg xmlns="http://www.w3.org/2000/svg" viewBox="0 0 105.75 65.14"><defs><style>.cls-1{fill:none;stroke:#fff;stroke-miterlimit:10;stroke-width:1.87px;}</style></defs><g id="Layer_2" data-name="Layer 2"><g id="Text"><path class="cls-1" d="M52.8,56.81s19.54-23.09,51.25-9.9A162.79,162.79,0,0,1,90.86,57.57C82,64.17,70.82,68.73,52.8,56.81Z"/><path class="cls-1" d="M86.81,42.87s10.24-10.44,12.8-17.53c0,0-30.93-2.36-46.89,31.33"/><path class="cls-1" d="M74,32.24S80.9,21.6,78.53,10c0,0-26.2,4.54-25.81,47.09"/><path class="cls-1" d="M53,56.81S33.41,33.72,1.69,46.91a164.48,164.48,0,0,0,13.2,10.66C23.77,64.17,34.93,68.73,53,56.81Z"/><path class="cls-1" d="M18.94,42.87S8.7,32.43,6.14,25.34c0,0,30.93-2.36,46.88,31.33"/><path class="cls-1" d="M31.75,32.24S24.85,21.6,27.22,10c0,0,26.2,4.54,25.8,47.09"/><path class="cls-1" d="M60.8,22.78S60.41,8.4,52.92,1.31c0,0-6.7,6.69-7.68,22.65"/></g></g></svg>