<svg xmlns="http://www.w3.org/2000/svg" viewBox="0 0 265.09 265.09"><defs><style>.cls-1{fill:#576c76;}.cls-2,.cls-3{fill:#fff;}.cls-3{font-size:25.61px;font-family:Cabin-Bold, Cabin;font-weight:700;}.cls-4{letter-spacing:-0.05em;}.cls-5{letter-spacing:0em;}.cls-6{letter-spacing:-0.01em;}.cls-7{letter-spacing:-0.1em;}</style></defs><g id="Layer_2" data-name="Layer 2"><g id="Text"><rect class="cls-1" width="265.09" height="265.09"/><path class="cls-2" d="M164.1,116v6.17q0,8.13,0,16.24a7.43,7.43,0,1,1-14.85.13c0-4.48,0-9,0-13.44v-7.83c0-.24,0-.48,0-.78h-1.81v1c0,7.06,0,14.13,0,21.19a7.37,7.37,0,0,1-10.27,6.8,7.72,7.72,0,0,1-1.41-.84c-.44-.32-.83-.71-1.25-1.06a18.08,18.08,0,0,1-1.48,1.2,7.39,7.39,0,0,1-11.53-6.06c0-7.06,0-14.13,0-21.19v-1h-1.84v2.63c0,6.54,0,13.08,0,19.62a7.36,7.36,0,0,1-5.91,7.18,7.26,7.26,0,0,1-8.1-3.95,8.8,8.8,0,0,1-.79-3.49c0-9.78,0-19.56,0-29.34a1.82,1.82,0,0,0-.83-1.7c-3.1-2.28-6.22-4.53-9.22-6.94-2.27-1.82-3.45-4.14-2.72-7.24,1.31-5.56,2.36-11.19,3.72-16.73,1.89-7.64,7.84-12.11,15-12.07,10.71.06,21.43,0,32.14,0a5,5,0,0,0,1.53-.27c4.89-1.63,9.77-3.32,14.69-4.9a6.31,6.31,0,0,1,6.6,1.32,6.37,6.37,0,0,1,2,6.37,1,1,0,0,0,.25.81A15.14,15.14,0,0,1,173.38,80c0,10,0,19.89,0,29.84a6.44,6.44,0,0,1-6,6.55A18.46,18.46,0,0,1,164.1,116Zm-31.54-8.76h0V98.56q0-11.3,0-22.59c0-1.59.68-2.24,2.27-2.23h9.56a3.59,3.59,0,0,0,1.13-.16q8.4-2.79,16.8-5.61a2.78,2.78,0,0,0,1.79-2.71A2.57,2.57,0,0,0,162,62.74a6.24,6.24,0,0,0-2.56.33c-4.8,1.56-9.58,3.2-14.38,4.78a5.84,5.84,0,0,1-1.85.31q-16.44,0-32.89,0a11,11,0,0,0-6.55,2.12c-2.72,2-4,4.75-4.67,8Q97.46,86.16,95.64,94a3.16,3.16,0,0,0,1.24,3.55c2.64,2,5.29,3.93,7.93,5.91a.89.89,0,0,0,1,.11,1.81,1.81,0,0,1,2.59,1.61c0,1.11,0,2.22,0,3.33q0,15,0,29.92a3.68,3.68,0,0,0,3.7,3.9,3.63,3.63,0,0,0,3.69-3.88c0-3.35,0-6.71,0-10.06v-13.6a1.9,1.9,0,0,1,2.06-2.13c1.76,0,3.52,0,5.28,0a1.84,1.84,0,0,1,1.94,1.9c0,.33,0,.66,0,1q0,11.42,0,22.83a3.72,3.72,0,1,0,7.42,0Zm3.71-29.78v51.16c0,3.27,0,6.54,0,9.8a3.85,3.85,0,0,0,3.71,4,3.7,3.7,0,0,0,3.68-4c0-3.32,0-6.65,0-10v-13.6a1.84,1.84,0,0,1,1.84-2.08q2.8-.06,5.61,0a1.79,1.79,0,0,1,1.81,1.84c0,.44,0,.88,0,1.32V138.2a3.93,3.93,0,0,0,3.77,4.16c2.2,0,3.64-1.7,3.64-4.12q0-13.73,0-27.45c0-.59,0-1.18,0-1.77a1.92,1.92,0,0,1,2-1.91,1.8,1.8,0,0,1,1.72,2.08,3,3,0,0,0,3.69,3.34,2.75,2.75,0,0,0,1.91-2.93c0-10.17,0-20.33,0-30.5a10.7,10.7,0,0,0-3.82-8.18.71.71,0,0,0-1.06-.06,6.27,6.27,0,0,1-1.48.7c-4.58,1.54-9.2,3-13.75,4.61a19.68,19.68,0,0,1-7.81,1.28C139.94,77.36,138.15,77.43,136.27,77.43Z"/><path class="cls-2" d="M119.56,34.79a13,13,0,1,1-13,13A13,13,0,0,1,119.56,34.79Zm-9.25,12.89a9.27,9.27,0,1,0,9.44-9.18A9.2,9.2,0,0,0,110.31,47.68Z"/><path class="cls-2" d="M149.31,34.78a13,13,0,1,1-13.05,12.81A13,13,0,0,1,149.31,34.78Zm9.22,12.95A9.28,9.28,0,1,0,149.29,57,9.28,9.28,0,0,0,158.53,47.73Z"/><path class="cls-2" d="M108.43,83a1.84,1.84,0,1,1-1.81-1.85A1.82,1.82,0,0,1,108.43,83Z"/><path class="cls-2" d="M108.43,90.42a1.84,1.84,0,1,1-1.83-1.83A1.81,1.81,0,0,1,108.43,90.42Z"/><path class="cls-2" d="M106.61,96a1.85,1.85,0,1,1-.08,3.69,1.84,1.84,0,0,1-1.78-1.89A1.82,1.82,0,0,1,106.61,96Z"/><path class="cls-2" d="M164.1,86.7a1.87,1.87,0,1,1-1.93-1.84A1.92,1.92,0,0,1,164.1,86.7Z"/><path class="cls-2" d="M162.2,92.27a1.87,1.87,0,1,1-1.82,1.86A1.92,1.92,0,0,1,162.2,92.27Z"/><path class="cls-2" d="M162.28,99.69a1.86,1.86,0,0,1-.08,3.72,1.9,1.9,0,0,1-1.83-1.85A1.93,1.93,0,0,1,162.28,99.69Z"/><text class="cls-3" transform="translate(82.06 207.39)">FRIENDS <tspan x="-16.08" y="29.67">AND </tspan><tspan class="cls-4" x="42.23" y="29.67">F</tspan><tspan class="cls-5" x="54.31" y="29.67">A</tspan><tspan class="cls-6" x="70.32" y="29.67">M</tspan><tspan x="91.52" y="29.67">I</tspan><tspan class="cls-7" x="98.74" y="29.67">L</tspan><tspan x="109.01" y="29.67">Y</tspan></text></g></g></svg>