<svg xmlns="http://www.w3.org/2000/svg" viewBox="0 0 265.09 265.09"><defs><style>.cls-1{fill:#576c76;}.cls-2{font-size:25.61px;font-family:Cabin-Bold, Cabin;font-weight:700;}.cls-2,.cls-4{fill:#fff;}.cls-3{letter-spacing:-0.06em;}</style></defs><g id="Layer_2" data-name="Layer 2"><g id="Text"><rect class="cls-1" width="265.09" height="265.09"/><text class="cls-2" transform="translate(85.85 218.82)">HEA<tspan class="cls-3" x="49.25" y="0">L</tspan><tspan x="60.49" y="0">TH</tspan></text><path class="cls-4" d="M112.55,100.64c-.48.46-.79.73-1.08,1l-15.71,15.7c-1.53,1.54-2.28,1.54-3.8,0L83.61,109c-1.35-1.35-1.34-2.17,0-3.55Q94.23,94.91,104.8,84.32a16.75,16.75,0,0,1,12.39-5.11c1.28,0,2.56,0,4.12,0-3.37-3.32-5.16-7.13-5-11.68A14.4,14.4,0,0,1,122,56.32a14.77,14.77,0,0,1,19.72,1,14.5,14.5,0,0,1,4.54,11,15.06,15.06,0,0,1-5,10.92c1.59,0,2.9,0,4.21,0a16.73,16.73,0,0,1,12.29,5.06q10.64,10.62,21.24,21.25c1.32,1.31,1.33,2.17,0,3.47q-4.29,4.31-8.6,8.6c-1.25,1.25-2.12,1.24-3.39,0l-15.78-15.79c-.33-.33-.61-.71-1.1-1.29-.06.63-.11.91-.11,1.2,0,5.84,0,11.69,0,17.53a5,5,0,0,0,.39,1.79q7.9,20.28,15.85,40.55c.09.25.2.5.3.76.66,1.79-.1,2.93-2,2.94-3.35,0-6.7,0-10.05,0H149c-1.94,0-2.24-.2-2.94-2L132,127.3c-.17-.43-.35-.85-.61-1.49-1.25,3.58-2.42,7-3.6,10.33q-4.69,13.5-9.38,27c-.66,1.89-1,2.11-3,2.11-5.07,0-10.13,0-15.2,0-2.32,0-3-1-2.29-3.16q7.13-20.5,14.24-41a6.84,6.84,0,0,0,.37-2.15c0-5.65,0-11.3,0-17ZM102.1,161.52c4,0,7.89,0,11.74,0,.92,0,1.25-.32,1.53-1.14q6.6-19.08,13.25-38.13c.26-.74.52-1.47.76-2.21a1.91,1.91,0,0,1,3.76,0c.06.18.14.36.22.54q7.8,19.93,15.58,39.89a1.39,1.39,0,0,0,1.59,1.06c3.47,0,6.94,0,10.41,0,.36,0,.73,0,1.21-.05l-.46-1.18Q154.16,141,146.62,121.7a4.52,4.52,0,0,1-.38-1.56c0-8,0-15.9,0-23.85a2.71,2.71,0,0,1,.86-1.77c.75-.68,1.67-.42,2.65.57q8.94,8.91,17.85,17.85a5.32,5.32,0,0,1,.67,1l6.87-6.85a1.89,1.89,0,0,0-.21-.25q-10-10-20.09-20.08A12.89,12.89,0,0,0,145.38,83c-9.28,0-18.55,0-27.82,0a14,14,0,0,0-10.45,4.35C100.78,93.69,94.39,100,88,106.4c-.27.27-.52.55-.66.71l6.8,6.83a6.11,6.11,0,0,1,.68-1l17.76-17.78c.69-.69,1.39-1.31,2.45-.9s1.25,1.35,1.24,2.39c0,7.68,0,15.35,0,23a6.51,6.51,0,0,1-.38,2q-4.77,13.79-9.57,27.55C104.94,153.32,103.55,157.32,102.1,161.52ZM120,68a11.22,11.22,0,1,0,11.21-11.22A11.25,11.25,0,0,0,120,68Z"/><path class="cls-4" d="M125.81,159.37l3.49.28v3.71l-3.89-.27Z"/><path class="cls-4" d="M185.29,114l-3.71-.34.2-3.52h3.72Z"/><path class="cls-4" d="M178.3,136.21l-3.24-1.86,1.68-3.21,3.35,1.61Z"/><path class="cls-4" d="M137.12,163.08l-3.88.3v-3.74l3.43-.27Z"/><path class="cls-4" d="M172.09,79.38l-2.26-2.86,2.84-2.4,2.43,3Z"/><path class="cls-4" d="M81.72,99.13l-3.64-.73.9-3.8,3.59,1Z"/><path class="cls-4" d="M97.83,71.28l-2.67,2.5-2.53-2.7,2.73-2.59Z"/><path class="cls-4" d="M81.12,102.74l-.31,3.63-3.71-.24.33-3.85Z"/><path class="cls-4" d="M180.41,120.87l.72-3.56,3.67.61-.76,3.8Z"/><path class="cls-4" d="M155.84,65l-3.22-1.65L154.18,60l3.49,1.77Z"/><path class="cls-4" d="M89.37,137.4l2.14,2.93-2.91,2.32-2.31-3.13Z"/><path class="cls-4" d="M171,140.37l2.16-2.94,3.07,2.1-2.29,3.14Z"/><path class="cls-4" d="M85.27,80.35l3.15,2-1.79,3.14-3.31-1.73Z"/><path class="cls-4" d="M179.24,83.78l-3.3,1.76-1.81-3.15,3.15-2Z"/><path class="cls-4" d="M85,88.76l-1.35,3.37-3.5-1.27,1.44-3.61Z"/><path class="cls-4" d="M178.87,92.19l-1.35-3.36,3.42-1.51,1.43,3.62Z"/><path class="cls-4" d="M103.6,66.85,100.65,69l-2.26-3,3.17-2.26Z"/><path class="cls-4" d="M181.38,102.82l3.69-.48.36,3.91h-3.72Z"/><path class="cls-4" d="M84.22,136.17l-1.83-3.44,3.36-1.63,1.69,3.21Z"/><path class="cls-4" d="M89.89,74.06l2.83,2.41-2.23,2.84-3-2.19Z"/><path class="cls-4" d="M77.69,117.86l3.68-.6.72,3.55-3.61.87Z"/><path class="cls-4" d="M104.91,61.72,108.37,60l1.6,3.36L106.74,65Z"/><path class="cls-4" d="M164.19,66,161.93,69l-3-2.1,2-3.12Z"/><path class="cls-4" d="M180,95.69l3.59-1,.9,3.8-3.64.71Z"/><path class="cls-4" d="M83.07,124.35l1.21,3.41-3.47,1.39-1.31-3.68Z"/><path class="cls-4" d="M80.94,113.62l-3.68.33L77,110.14h3.74Z"/><path class="cls-4" d="M183,125.51l-1.31,3.66-3.46-1.38,1.21-3.4Z"/><path class="cls-4" d="M166,145.75l2.66-2.5,2.6,2.32-2.75,2.55Z"/><path class="cls-4" d="M170,71.14l-2.67,2.61-2.55-2.43,2.44-2.78Z"/><path class="cls-4" d="M93.74,143.25l2.78,2.53-2.69,2.39-2.6-2.64Z"/><path class="cls-4" d="M131,94.12a26,26,0,0,1,3.73-1.62,6.32,6.32,0,0,1,7,3.07,6,6,0,0,1-1.23,7.37c-2.54,2.47-5.13,4.9-7.71,7.32-1.13,1.06-2,1-3.15-.07l-7.45-7.08c-2.58-2.46-2.88-5.92-.74-8.49a6.6,6.6,0,0,1,8.76-1.12C130.56,93.74,130.89,94,131,94.12Zm.17,12.39.43-.29c2-1.93,4.07-3.85,6.09-5.79,1.18-1.14,1.33-2.35.47-3.4a2.76,2.76,0,0,0-3.78-.42A20.68,20.68,0,0,0,132.86,98c-1.19,1.09-2,1.08-3.24,0a14,14,0,0,0-1.75-1.53,2.7,2.7,0,0,0-3.5.5,2.16,2.16,0,0,0,.06,3.07C126.63,102.22,128.91,104.33,131.2,106.51Z"/></g></g></svg>