<svg xmlns="http://www.w3.org/2000/svg" viewBox="0 0 265.09 265.09"><defs><style>.cls-1{fill:#576c76;}.cls-2{font-size:25.61px;fill:#fff;font-family:Cabin-Bold, Cabin;font-weight:700;}.cls-3{letter-spacing:-0.01em;}.cls-4{letter-spacing:-0.01em;}.cls-5{fill:none;stroke:#fff;stroke-miterlimit:10;stroke-width:3px;}</style></defs><g id="Layer_2" data-name="Layer 2"><g id="Text"><rect class="cls-1" width="265.09" height="265.09"/><text class="cls-2" transform="translate(101.6 226.92)"><tspan class="cls-3">L</tspan><tspan class="cls-4" x="12.47" y="0">O</tspan><tspan x="31.68" y="0">VE</tspan></text><path class="cls-5" d="M96.16,98.87h7.32C107.19,114.46,120,126,135.12,126c14.88,0,27.44-11.06,31.42-26.19h5.73"/><path class="cls-5" d="M135,65.72s-17.17-16.34-28.75.41C96.5,80.2,117.61,99.85,117.61,99.85"/><path class="cls-5" d="M132.83,65.72s17.17-16.34,28.76.41c9.72,14.07-11.38,33.72-11.38,33.72"/><line class="cls-5" x1="100.53" y1="57.68" x2="95.51" y2="53.86"/><line class="cls-5" x1="94.11" y1="70.53" x2="88.88" y2="70.13"/><line class="cls-5" x1="167.4" y1="58.08" x2="171.62" y2="54.46"/><line class="cls-5" x1="174.03" y1="70.73" x2="179.25" y2="70.13"/><path class="cls-5" d="M146.12,67.52S155,65.71,156,76"/><circle class="cls-5" cx="134.22" cy="107.28" r="9.44"/><line class="cls-5" x1="133.94" y1="125.95" x2="133.94" y2="149.34"/><path class="cls-5" d="M141.18,167.18h19.25a9,9,0,0,0,9-9h0a9,9,0,0,0-9-9H107.94a9,9,0,0,0-9,9h0a9,9,0,0,0,9,9h17.59l12.62-8.75"/></g></g></svg>