<svg xmlns="http://www.w3.org/2000/svg" viewBox="0 0 265.09 265.09"><defs><style>.cls-1{fill:#576c76;}.cls-2,.cls-3{fill:#fff;}.cls-3{font-size:25.61px;font-family:Cabin-Bold, Cabin;font-weight:700;}.cls-4{letter-spacing:-0.01em;}.cls-5{letter-spacing:-0.01em;}.cls-6{letter-spacing:0em;}</style></defs><g id="Layer_2" data-name="Layer 2"><g id="Text"><rect class="cls-1" width="265.09" height="265.09"/><path class="cls-2" d="M160.1,166.85c-1.2-.28-2.42-.5-3.6-.84-6-1.71-10.56-5.38-14.38-10.12-6.71-8.33-10.42-18-12.63-28.35a100.12,100.12,0,0,1-1.43-32.71c1.21-10.34,3.87-20.29,9-29.44,3.51-6.32,7.89-11.9,14.32-15.54a22.1,22.1,0,0,1,8.24-2.77,2.07,2.07,0,0,0,.52-.2h4.45a2.07,2.07,0,0,0,.52.2,21.92,21.92,0,0,1,8.14,2.73c6.45,3.61,10.83,9.2,14.36,15.51,5.11,9.15,7.78,19.1,9,29.45a100.07,100.07,0,0,1-1.39,32.61c-2.21,10.43-5.94,20.19-12.71,28.57-3.83,4.75-8.46,8.39-14.42,10.1-1.14.32-2.33.53-3.49.8Zm-29.21-58.73c.09,1.45.21,4.26.42,7.06a79.23,79.23,0,0,0,6.7,27.21c2.85,6.28,6.5,12,12,16.32,6,4.67,12.56,6,19.71,2.95a26.32,26.32,0,0,0,9.95-7.95,57,57,0,0,0,10.35-20.53,94.39,94.39,0,0,0,3.3-34.51,81,81,0,0,0-6.68-27.23c-2.84-6.28-6.49-12-12-16.35-4.26-3.37-9-5.16-14.54-4.49-5.16.64-9.27,3.26-12.85,6.83C142,62.71,138.6,69.17,136,76.11,132.41,86,131,96.27,130.89,108.12Z"/><path class="cls-2" d="M77.55,102.88c.41-1.66.68-3.36,1.23-5a21.84,21.84,0,0,1,42.57,6.75c0,1-.81,2.07-1.15,3.13a5.74,5.74,0,0,0-.35,2.11c.51,5,1.08,10.08,1.63,15.13,0,.45,0,.91.07,1.46h-7v10.08H102.77v12.29H99.2V136.63H90.83V133h20.1V123h6.68c-.13-1.37-.22-2.59-.35-3.81-.35-3.22-.74-6.43-1.07-9.65a3.21,3.21,0,0,1,.16-1.92c2.47-3.6,1.32-7.12-.27-10.52A18.24,18.24,0,0,0,95.41,87,18.76,18.76,0,0,0,81.1,105.5c0,12.22,0,24.44,0,36.66V151H77.55Z"/><path class="cls-2" d="M126.37,71.41l1.38-3.36L131,69.47l-1.31,3.23Z"/><path class="cls-2" d="M137.86,156.24,135,158.36l-2.1-3,3-1.94Z"/><path class="cls-2" d="M135.89,60.31l-3-1.94,2.08-3,2.85,2.12Z"/><path class="cls-2" d="M134.1,150.47,131,152.21,129.3,149l3.16-1.62Z"/><path class="cls-2" d="M134.1,63.26l-1.63,3.05-3.17-1.58,1.7-3.22Z"/><path class="cls-2" d="M131,144.26l-3.24,1.42-1.38-3.34,3.31-1.31Z"/><path class="cls-2" d="M140,54.79l-2.67-2.31,2.44-2.64,2.5,2.55Z"/><path class="cls-2" d="M139.57,163.67l-2.25-2.42,2.68-2.31,2.29,2.43Z"/><path class="cls-2" d="M191.73,58.38l-3,1.94-2-2.82,2.85-2.13Z"/><path class="cls-2" d="M188.75,153.41l3,1.94-2.08,3-2.86-2.11Z"/><path class="cls-2" d="M195.34,64.74l-3.16,1.59-1.64-3,3.09-1.77Z"/><path class="cls-2" d="M193.64,152.19l-3.09-1.74,1.62-3,3.17,1.59Z"/><path class="cls-2" d="M184.64,158.92l2.69,2.33-2.47,2.64-2.46-2.58Z"/><path class="cls-2" d="M184.64,54.81l-2.35-2.5L185,50l2.34,2.5Z"/><path class="cls-2" d="M177.22,69.84c-1.74,5.24-3.36,10.24-5.09,15.2a1.67,1.67,0,0,0,.74,2.27c5.67,4.27,8.84,10,8.94,17.1.17,12.89.05,25.78.05,38.66,0,.15,0,.31-.05.54h-3.48V105.69c0-9.4-6-16.94-15.05-18.84-9.68-2-19.88,5.06-21.43,14.86-.27,1.72-.36,3.33.72,4.8,1.36,1.86.5,3.86.35,5.78-.26,3.19-.68,6.37-1,9.55a9.13,9.13,0,0,0,0,1.07h6.5V133h20.24v3.58h-8.32v7h-3.58v-7H144.94V126.53h-7.11c.2-2,.38-3.84.58-5.69.42-3.8.86-7.6,1.26-11.4a1.79,1.79,0,0,0-.19-1.11c-2.31-3.39-1.42-6.89-.32-10.33a21,21,0,0,1,8.45-11.17,1.3,1.3,0,0,0,.61-1.8c-1.6-4.65-3.13-9.31-4.68-14-.11-.32-.18-.66-.31-1.18,2.54.85,5,1.52,7.3,2.46a2.74,2.74,0,0,0,3.6-.83c1.88-2.12,4-4.06,6.06-6.15,2.23,2.24,4.43,4.38,6.54,6.61a1.92,1.92,0,0,0,2.41.6C171.72,71.6,174.36,70.79,177.22,69.84Zm-28.44,5.65c1.05,3.16,2,6.05,3,9a22.22,22.22,0,0,1,16.73.19l3.07-9.2c-1.24.41-2.28.69-3.27,1.1A2,2,0,0,1,165.7,76c-1.74-1.93-3.64-3.7-5.55-5.61-2,2-4,4-5.92,6a1.28,1.28,0,0,1-1.62.37C151.45,76.32,150.25,76,148.78,75.49Z"/><text class="cls-3" transform="translate(58.02 222.05)">SELF<tspan class="cls-4" x="55.65" y="0">-</tspan><tspan class="cls-5" x="66.12" y="0">W</tspan><tspan x="90.6" y="0">O</tspan><tspan class="cls-5" x="110.06" y="0">R</tspan><tspan class="cls-6" x="125.92" y="0">TH</tspan></text></g></g></svg>